# xmcd
#
# Track frame offsets:
#	150
#	32417
#	64840
#	90265
#	130265
#	151105
#	180977
#	200970
#	223203
#	250838
#	270168
#	301390
#	322615
#	328862
#
# Disc length: 4785 seconds
#
# Revision: 1
# Processed by: cddbd v1.5.2PL0 Copyright (c) Steve Scherf et al.
# Submitted via: audiograbber 1.83.01
#
DISCID=b612af0e
DTITLE=Santana - Grand Collection
DYEAR=2008
DGENRE=Instrumental Pop
TTITLE0=Milagro
TTITLE1=Gipsy - Grajonca
TTITLE2=Red Prophet
TTITLE3=Saja - Right On
TTITLE4=We Don't Have to Wait
TTITLE5=Your Touch
TTITLE6=Agua Que Va Caer
TTITLE7=Contigo (With You)
TTITLE8=Free All The Poeple (South Africa)
TTITLE9=Make Somebody Happy
TTITLE10=La Danza
TTITLE11=Live Is For Living
TTITLE12=A Dios
TTITLE13=Medley: [Live]
EXTD=
EXTT0=
EXTT1=
EXTT2=
EXTT3=
EXTT4=
EXTT5=
EXTT6=
EXTT7=
EXTT8=
EXTT9=
EXTT10=
EXTT11=
EXTT12=
EXTT13=
PLAYORDER=
